<?xml version="1.0" standalone="no"?> <!DOCTYPE svg PUBLIC "-//W3C//DTD SVG 1.0//EN" "http://www.w3.org/TR/2001/REC-SVG-20010904/DTD/svg10.dtd" > <svg xmlns="http://www.w3.org/2000/svg" width="100%" height="100%">
<defs >
<font id="proximanovaregular" horiz-adv-x="896" ><font-face
    font-family="Proxima Nova Rg"
    units-per-em="2048"
    panose-1="2 0 5 6 3 0 0 2 0 4"
    ascent="1618"
    descent="-430"
    alphabetic="0" />
<missing-glyph horiz-adv-x="1038" d="M879 -184H160V1540H879V-184ZM813 -123V1479H223V-123H813Z" />
<glyph unicode=" " glyph-name="space" horiz-adv-x="530" />
<glyph unicode="!" glyph-name="exclam" horiz-adv-x="471" d="M299 383H172L139 1366H332L299 383ZM236 -20Q190 -20 157 13T123 92Q123 138 156 171T236 205T315 172T348 92Q348 47 315 14T236 -20Z" />
<glyph unicode="&quot;" glyph-name="quotedbl" horiz-adv-x="704" d="M242 844H166Q111 1264 111 1292Q111 1330 138 1358T203 1386Q242 1386 269 1359T297 1292Q297 1280 284 1168T256 950L242 844ZM539 844H463Q408 1264 408 1292Q408 1331 435 1358T502 1386Q540
1386 567 1358T594 1292Q594 1280 580 1168T552 950L539 844Z" />
<glyph unicode="#" glyph-name="numbersign" horiz-adv-x="1210" d="M614 0H489L614 371H387L264 0H137L262 371H45L80 479H299L434 887H213L246 993H471L594 1366H721L598 993H823L946 1366H1071L946 993H1165L1135 887H911L774 479H1001L969 371H737L614 0ZM649
479L786 887H561L424 479H649Z" />
<glyph unicode="$" glyph-name="dollar" horiz-adv-x="1214" d="M555 -205V-23Q260 -4 88 193L190 324Q253 249 346 197T555 131V629Q501 644 465 655T381 685T300 723T233 771T178 833T144 910T131 1008Q131 1165 249 1268T555 1386V1573H680V1384Q924 1364 1085
1196L983 1071Q864 1202 680 1229V782Q734 767 771 755T858 723T941 682T1010 630T1067 564T1102 481T1116 377Q1116 305 1092 240T1018 117T881 23T680 -23V-205H555ZM940 365Q940 413 921 450T863 515T782 560T680 596V129Q814 144 877 212T940 365ZM307 1018Q307
977 325 945T379 889T456 849T555 815V1233Q446 1225 377 1166T307 1018Z" />
<glyph unicode="%" glyph-name="percent" horiz-adv-x="1499" d="M393 713Q249 713 156 808T63 1047Q63 1193 155 1289T393 1386Q539 1386 631 1290T723 1047Q723 903 631 808T393 713ZM375 0H262L1135 1366H1249L375 0ZM1106 -25Q961 -25 869 71T776 311Q776
456 868 552T1106 649Q1250 649 1342 553T1434 311Q1434 167 1342 71T1106 -25ZM393 817Q484 817 542 883T600 1047Q600 1149 543 1215T393 1282Q303 1282 245 1216T186 1047Q186 949 244 883T393 817ZM1106 80Q1197 80 1255 146T1313 311Q1313 412 1255 478T1106
545Q1013 545 955 479T897 311Q897 211 955 146T1106 80Z" />
<glyph unicode="&amp;" glyph-name="ampersand" horiz-adv-x="1314" d="M1255 0H1042Q1001 35 893 143Q725 -25 500 -25Q381 -25 287 16T134 146T76 356Q76 433 99 496T168 609T262 693T377 764Q272 940 272 1071Q272 1206 371 1296T616 1386Q753 1386 838 1315T924
1118Q924 1084 917 1054T901 998T872 947T837 903T792 863T744 828T689 794T634 764T575 733Q642 644 735 539L897 356Q989 497 1044 670L1176 610Q1081 387 989 258Q1116 128 1255 0ZM516 102Q668 102 801 238Q670 374 612 444Q516 555 442 662Q345 603 293 534T240
367Q240 245 320 174T516 102ZM430 1067Q430 971 512 831Q577 863 617 887T699 946T762 1022T782 1112Q782 1185 737 1226T621 1268Q541 1268 486 1212T430 1067Z" />
<glyph unicode="&apos;" glyph-name="quotesingle" horiz-adv-x="407" d="M242 844H166Q111 1264 111 1292Q111 1330 138 1358T203 1386Q242 1386 269 1359T297 1292Q297 1280 284 1168T256 950L242 844Z" />
<glyph unicode="(" glyph-name="parenleft" horiz-adv-x="507" d="M473 -336L379 -408Q240 -216 165 18T90 498T165 978T379 1403L473 1333Q364 1120 311 930T258 498Q258 258 311 67T473 -336Z" />
<glyph unicode=")" glyph-name="parenright" horiz-adv-x="507" d="M35 -336L129 -408Q268 -216 343 18T418 498T343 978T129 1403L35 1333Q144 1120 197 930T250 498Q250 258 197 67T35 -336Z" />
<glyph unicode="*" glyph-name="asterisk" horiz-adv-x="696" d="M395 797H301L313 1032L115 905L70 985L279 1092L70 1198L115 1280L313 1151L301 1386H395L383 1151L580 1280L627 1198L418 1092L627 985L580 905L383 1032L395 797Z" />
<glyph unicode="+" glyph-name="plus" horiz-adv-x="1021" d="M963 637H569V201H453V637H59V743H453V1167H569V743H963V637Z" />
<glyph unicode="," glyph-name="comma" horiz-adv-x="471" d="M360 49Q360 -42 314 -125T195 -260L117 -197Q167 -164 205 -110T250 -6Q242 -10 221 -10Q180 -10 152 20T123 94Q123 139 154 172T231 205Q286 205 323 163T360 49Z" />
<glyph unicode="-" glyph-name="hyphen" horiz-adv-x="614" d="M553 428H61V563H553V428Z" />
<glyph unicode="." glyph-name="period" horiz-adv-x="473" d="M282 -20T236 -20T157 13T123 92T156 171T236 205T315 172T348 92T315 13Z" />
<glyph unicode="/" glyph-name="slash" horiz-adv-x="606" d="M121 -41H0L485 1407H606L121 -41Z" />
<glyph unicode="0" glyph-name="zero" horiz-adv-x="1253" d="M627 -25Q518 -25 429 17T281 128T181 290T122 481T104 682Q104 786 122 884T180 1074T280 1234T429 1344T627 1386Q735 1386 824 1345T972 1235T1072 1074T1131 884T1149 682T1131 481T1072 290T972
128T824 17T627 -25ZM534 127T627 127T790 174T899 303T956 479T975 682Q975 767 964 844T927 993T862 1119T763 1203T627 1235T492 1204T392 1119T327 994T290 844T279 682Q279 574 297 480T355 304T464 175Z" />
<glyph unicode="1" glyph-name="one" horiz-adv-x="694" d="M535 0H365V1143L145 909L43 1014L385 1366H535V0Z" />
<glyph unicode="2" glyph-name="two" horiz-adv-x="1204" d="M1049 0H111V137Q230 230 309 293T475 431T617 559T725 673T806 782T852 883T870 985Q870 1108 786 1171T584 1235Q465 1235 371 1189T213 1063L109 1171Q186 1274 311 1330T584 1386Q671 1386 751
1361T897 1288T1002 1162T1042 985Q1042 904 1008 820T920 660T775 494T596 329T379 152H1049V0Z" />
<glyph unicode="3" glyph-name="three" horiz-adv-x="1140" d="M545 -25Q380 -25 254 38T59 201L160 307Q222 225 322 176T541 127Q689 127 774 196T860 383Q860 506 769 565T520 625Q399 625 379 623V778Q401 776 520 776Q609 776 679 799T793 874T838 1001Q838
1111 751 1173T532 1235Q324 1235 172 1069L78 1176Q156 1272 275 1329T547 1386Q749 1386 878 1289T1008 1024Q1008 953 981 894T909 798T815 738T715 707Q764 702 816 679T918 617T998 512T1030 369Q1030 195 899 85T545 -25Z" />
<glyph unicode="4" glyph-name="four" horiz-adv-x="1142" d="M885 0H715V346H66V487L651 1366H885V496H1077V346H885V0ZM715 496V1208L236 496H715Z" />
<glyph unicode="5" glyph-name="five" horiz-adv-x="1208" d="M616 -25Q302 -25 135 195L240 309Q381 127 616 127Q755 127 843 210T932 420Q932 554 845 634T618 715Q436 715 303 588L178 631V1366H1014V1214H348V739Q403 793 486 827T668 862Q755 862 833 833T971
751T1068 613T1104 426Q1104 223 966 99T616 -25Z" />
<glyph unicode="6" glyph-name="six" horiz-adv-x="1210" d="M633 -25Q521 -25 431 13T281 116T181 272T122 465T104 682Q104 795 124 897T189 1089T298 1244T456 1348T662 1386Q898 1386 1038 1223L952 1096Q895 1164 828 1199T662 1235Q566 1235 490 1190T369
1067T300 896T276 698V645Q328 726 435 792T664 858Q757 858 837 831T978 750T1075 613T1110 422Q1110 333 1077 253T983 110T832 12T633 -25ZM625 127Q701 127 762 153T861 223T918 316T938 416Q938 560 851 635T625 711Q523 711 431 655T283 508Q287 454 300
403T341 301T405 212T499 151T625 127Z" />
<glyph unicode="7" glyph-name="seven" horiz-adv-x="1054" d="M436 0H248L799 1214H63V1366H995V1249L436 0Z" />
<glyph unicode="8" glyph-name="eight" horiz-adv-x="1191" d="M596 -25Q460 -25 350 18T173 147T106 346Q106 412 132 471T205 574T309 652T432 705Q348 729 283 769T173 878T129 1032Q129 1121 169 1190T278 1301T427 1364T596 1386Q683 1386 764 1365T914 1302T1024
1191T1065 1032Q1065 908 979 826T760 705Q849 678 920 630T1038 508T1085 346Q1085 178 945 77T596 -25ZM596 774Q627 779 659 787T736 815T813 859T869 923T893 1010Q893 1113 808 1174T596 1235Q468 1235 385 1174T301 1010Q301 963 324 924T380 860T457 816T533
788T596 774ZM596 127Q727 127 820 192T913 365Q913 416 888 459T826 531T744 582T662 614T596 629Q567 625 531 615T449 582T366 532T304 460T279 365Q279 257 371 192T596 127Z" />
<glyph unicode="9" glyph-name="nine" horiz-adv-x="1210" d="M551 -23Q319 -23 172 141L258 268Q316 200 384 165T551 129T726 175T847 300T914 471T936 666Q936 700 934 719Q882 638 776 572T549 506Q423 506 324 553T162 700T100 942Q100 1031 133 1111T227
1254T379 1352T580 1389Q691 1389 781 1351T931 1248T1031 1092T1090 899T1108 682Q1108 569 1087 467T1022 275T913 119T756 15T551 -23ZM588 653Q688 653 781 709T930 858Q925 912 911 962T870 1064T805 1152T711 1213T586 1237Q511 1237 450 1211T350 1142T292
1049T272 948Q272 804 360 729T588 653Z" />
<glyph unicode=":" glyph-name="colon" horiz-adv-x="460" d="M236 778Q190 778 157 812T123 891Q123 937 156 970T236 1004T315 971T348 891Q348 846 315 812T236 778ZM282 -20T236 -20T157 13T123 92T156 171T236 205T315 172T348 92T315 13Z" />
<glyph unicode=";" glyph-name="semicolon" horiz-adv-x="471" d="M236 778Q190 778 157 812T123 891Q123 937 156 970T236 1004T315 971T348 891Q348 846 315 812T236 778ZM360 53Q360 -39 315 -121T195 -256L117 -195Q167 -162 205 -107T250 -2Q242 -6 221 -6Q179
-6 151 23T123 98T154 176T231 209Q286 209 323 167T360 53Z" />
<glyph unicode="&lt;" glyph-name="less" horiz-adv-x="1021" d="M963 184L59 631V739L963 1188V1059L190 684L963 313V184Z" />
<glyph unicode="=" glyph-name="equal" horiz-adv-x="1021" d="M963 827H59V936H963V827ZM963 432H59V541H963V432Z" />
<glyph unicode="&gt;" glyph-name="greater" horiz-adv-x="1021" d="M963 631L59 184V313L831 684L59 1059V1188L963 739V631Z" />
<glyph unicode="?" glyph-name="question" horiz-adv-x="946" d="M416 379Q338 444 338 547Q338 600 358 644T411 721T483 783T562 839T633 895T686 962T707 1044Q707 1126 645 1180T467 1235Q356 1235 278 1192T139 1067L37 1178Q112 1277 225 1331T481 1386Q664
1386 773 1296T883 1069Q883 1006 861 953T804 863T727 792T643 730T566 673T509 608T487 532Q487 507 501 480T541 434L416 379ZM505 -20T459 -20T380 13T346 92T379 171T459 205Q505 205 538 172T571 92T538 13Z" />
<glyph unicode="@" glyph-name="at" horiz-adv-x="1603" d="M721 -143Q538 -143 389 -59T156 173T72 500Q72 662 139 812T318 1070T579 1242T885 1307Q1027 1307 1148 1256T1353 1117T1483 910T1530 657Q1530 542 1499 448T1417 296T1304 206T1176 174Q1094 174
1044 222T989 340V354Q934 275 847 225T664 174Q521 174 436 266T350 508Q350 612 391 708T500 872T654 981T831 1022Q927 1022 995 978T1094 862L1120 989H1260L1143 434Q1139 410 1139 391Q1139 342 1166 314T1235 285Q1261 285 1289 296T1348 335T1403 404T1442
510T1458 657Q1458 911 1298 1074T879 1237Q685 1237 514 1134T243 862T143 504Q143 342 218 209T427 0T729 -76Q928 -76 1110 39L1147 -14Q947 -143 721 -143ZM707 289Q802 289 879 342T1010 473L1069 758Q1049 815 995 861T858 907Q708 907 603 788T498 516Q498
415 553 352T707 289Z" />
<glyph unicode="A" glyph-name="A" horiz-adv-x="1347" d="M1329 0H1135L1014 305H334L213 0H18L569 1366H780L1329 0ZM965 455L674 1192L385 455H965Z" />
<glyph unicode="B" glyph-name="B" horiz-adv-x="1288" d="M782 0H160V1366H768Q944 1366 1047 1270T1151 1018Q1151 895 1081 811T911 705Q1021 688 1099 590T1178 369Q1178 202 1073 101T782 0ZM739 774Q851 774 913 835T975 993Q975 1089 913 1151T739 1214H330V774H739ZM750
152Q867 152 934 215T1001 387Q1001 486 935 554T750 623H330V152H750Z" />
<glyph unicode="C" glyph-name="C" horiz-adv-x="1384" d="M807 -25Q661 -25 532 27T308 170T159 395T104 682T159 969T308 1193T531 1337T807 1389Q1137 1389 1325 1118L1184 1038Q1124 1128 1023 1182T807 1237Q581 1237 431 1082T281 682Q281 523 350 396T539
198T807 127Q921 127 1022 182T1184 326L1327 248Q1128 -25 807 -25Z" />
<glyph unicode="D" glyph-name="D" horiz-adv-x="1433" d="M627 0H160V1366H627Q835 1366 996 1276T1242 1030T1327 682Q1327 537 1277 412T1137 195T916 52T627 0ZM627 152Q788 152 908 224T1090 415T1151 682Q1151 832 1092 951T912 1142T627 1214H330V152H627Z" />
<glyph unicode="E" glyph-name="E" horiz-adv-x="1165" d="M1055 0H160V1366H1055V1214H330V774H1040V623H330V152H1055V0Z" />
<glyph unicode="F" glyph-name="F" horiz-adv-x="1128" d="M330 0H160V1366H1055V1214H330V774H1040V623H330V0Z" />
<glyph unicode="G" glyph-name="G" horiz-adv-x="1460" d="M807 -27Q662 -27 533 24T310 167T160 392T104 682T159 971T309 1196T533 1338T807 1389Q1133 1389 1337 1135L1202 1049Q1135 1134 1031 1185T807 1237Q581 1237 431 1082T281 682Q281 523 350 396T539
198T807 127Q920 127 1017 170T1176 274V551H705V702H1343V211Q1245 100 1107 37T807 -27Z" />
<glyph unicode="H" glyph-name="H" horiz-adv-x="1458" d="M1298 0H1128V627H330V0H160V1366H330V778H1128V1366H1298V0Z" />
<glyph unicode="I" glyph-name="I" horiz-adv-x="489" d="M330 0H160V1366H330V0Z" />
<glyph unicode="J" glyph-name="J" horiz-adv-x="972" d="M379 -25Q158 -25 23 133L113 262Q220 127 369 127Q494 127 568 206T643 414V1366H813V412Q813 269 755 169T600 22T379 -25Z" />
<glyph unicode="K" glyph-name="K" horiz-adv-x="1230" d="M1198 0H985L467 614L330 459V0H160V1366H330V662L934 1366H1147L578 719L1198 0Z" />
<glyph unicode="L" glyph-name="L" horiz-adv-x="1009" d="M942 0H137V1366H307V152H942V0Z" />
<glyph unicode="M" glyph-name="M" horiz-adv-x="1656" d="M1497 0H1327V1149L864 0H795L330 1149V0H160V1366H403L829 313L1253 1366H1497V0Z" />
<glyph unicode="N" glyph-name="N" horiz-adv-x="1449" d="M1290 0H1126L330 1090V0H160V1366H334L1120 299V1366H1290V0Z" />
<glyph unicode="O" glyph-name="O" horiz-adv-x="1566" d="M980 -25T782 -25T429 67T189 321T104 682T188 1043T428 1296T782 1389T1136 1297T1377 1043T1462 682T1377 321T1136 68ZM632 127T782 127T1047 199T1224 398T1286 682Q1286 924 1147 1080T782 1237Q555
1237 418 1081T281 682Q281 524 341 398T517 200Z" />
<glyph unicode="P" glyph-name="P" horiz-adv-x="1202" d="M330 0H160V1366H709Q907 1366 1022 1248T1137 954Q1137 780 1022 662T709 543H330V0ZM688 694Q809 694 885 766T961 954Q961 1070 885 1142T688 1214H330V694H688Z" />
<glyph unicode="Q" glyph-name="Q" horiz-adv-x="1566" d="M782 -25Q584 -25 429 67T189 321T104 682T188 1043T428 1296T782 1389T1136 1297T1377 1043T1462 682Q1462 377 1274 176L1403 39L1286 -63L1153 78Q994 -25 782 -25ZM782 127Q928 127 1042 197L848
408L967 508L1159 299Q1286 455 1286 682Q1286 924 1147 1080T782 1237Q555 1237 418 1081T281 682Q281 524 341 398T517 200T782 127Z" />
<glyph unicode="R" glyph-name="R" horiz-adv-x="1247" d="M1151 0H950L604 543H330V0H160V1366H709Q898 1366 1018 1254T1139 954Q1139 865 1110 792T1030 670T917 592T782 557L1151 0ZM688 692Q809 692 886 765T963 954Q963 1070 887 1142T688 1214H330V692H688Z" />
<glyph unicode="S" glyph-name="S" horiz-adv-x="1200" d="M602 -25Q433 -25 300 33T78 193L180 324Q253 238 363 183T608 127Q678 127 734 141T827 179T886 235T920 299T930 365Q930 428 895 474T804 545T674 594T526 635T377 683T248 751T156 855T121 1008Q121
1176 254 1282T592 1389Q893 1389 1075 1196L973 1071Q826 1235 578 1235Q456 1235 377 1175T297 1018Q297 969 324 932T399 872T506 829T634 792T769 754T896 702T1004 629T1078 523T1106 377Q1106 299 1078 230T993 103T836 10T602 -25Z" />
<glyph unicode="T" glyph-name="T" horiz-adv-x="1167" d="M668 0H498V1214H66V1366H1102V1214H668V0Z" />
<glyph unicode="U" glyph-name="U" horiz-adv-x="1435" d="M717 -25Q446 -25 303 124T160 530V1366H332V535Q332 344 431 236T717 127T1003 236T1104 535V1366H1276V532Q1276 272 1133 124T717 -25Z" />
<glyph unicode="V" glyph-name="V" horiz-adv-x="1347" d="M780 0H569L18 1366H213L674 186L1135 1366H1329L780 0Z" />
<glyph unicode="W" glyph-name="W" horiz-adv-x="1808" d="M1389 0H1204L903 1102L602 0H418L29 1366H217L520 227L834 1366H975L1288 227L1589 1366H1780L1389 0Z" />
<glyph unicode="X" glyph-name="X" horiz-adv-x="1335" d="M1311 0H1104L668 582L231 0H25L557 700L55 1366H262L668 821L1071 1366H1280L778 702L1311 0Z" />
<glyph unicode="Y" glyph-name="Y" horiz-adv-x="1282" d="M727 0H557V578L18 1366H217L641 731L1065 1366H1264L727 578V0Z" />
<glyph unicode="Z" glyph-name="Z" horiz-adv-x="1198" d="M1100 0H98V141L866 1214H98V1366H1085V1225L315 152H1100V0Z" />
<glyph unicode="[" glyph-name="bracketleft" horiz-adv-x="497" d="M463 -389H82V1389H463V1276H203V-276H463V-389Z" />
<glyph unicode="\" glyph-name="backslash" horiz-adv-x="606" d="M485 -41L0 1407H121L606 -41H485Z" />
<glyph unicode="]" glyph-name="bracketright" horiz-adv-x="497" d="M418 -389H35V-276H297V1276H35V1389H418V-389Z" />
<glyph unicode="^" glyph-name="asciicircum" horiz-adv-x="884" d="M846 682H719L442 1253L166 682H39L385 1366H502L846 682Z" />
<glyph unicode="_" glyph-name="underscore" horiz-adv-x="1155" d="M1161 -195H-6V-82H1161V-195Z" />
<glyph unicode="`" glyph-name="grave" horiz-adv-x="462" d="M463 1139H346L0 1434H160L463 1139Z" />
<glyph unicode="a" glyph-name="a" horiz-adv-x="1081" d="M926 0H772V113Q649 -25 444 -25Q381 -25 321 -4T211 58T131 161T100 303Q100 383 130 447T209 550T319 609T444 629Q654 629 772 496V674Q772 770 703 825T522 881Q344 881 219 743L147 850Q305 1014
543 1014Q625 1014 692 995T813 938T896 833T926 680V0ZM502 86Q584 86 656 117T772 209V397Q729 455 657 486T502 518Q393 518 325 458T256 303Q256 207 324 147T502 86Z" />
<glyph unicode="b" glyph-name="b" horiz-adv-x="1177" d="M307 268Q348 202 431 158T604 113Q751 113 836 219T922 494T836 769T604 877Q515 877 432 831T307 717V268ZM307 0H154V1366H307V840Q368 922 455 968T641 1014Q837 1014 959 872T1081 494Q1081 256
959 116T641 -25Q540 -25 453 22T307 147V0Z" />
<glyph unicode="c" glyph-name="c" horiz-adv-x="1015" d="M590 -25Q372 -25 234 124T96 496Q96 718 234 866T590 1014Q820 1014 952 842L850 750Q757 877 598 877Q443 877 350 770T256 496Q256 328 349 221T598 113T850 242L952 147Q820 -25 590 -25Z" />
<glyph unicode="d" glyph-name="d" horiz-adv-x="1177" d="M1024 0H870V147Q813 69 726 22T537 -25Q341 -25 219 115T96 494Q96 729 219 871T537 1014Q636 1014 723 968T870 840V1366H1024V0ZM575 113Q664 113 746 158T870 270V717Q829 784 746 830T575 877Q428
877 342 770T256 494T342 220T575 113Z" />
<glyph unicode="e" glyph-name="e" horiz-adv-x="1153" d="M602 -25Q380 -25 238 120T96 496Q96 638 158 756T333 944T584 1014Q730 1014 839 943T1003 753T1059 483V444H260Q269 298 364 200T614 102Q701 102 781 135T922 229L995 129Q838 -25 602 -25ZM907 559Q906
616 887 672T829 777T727 856T582 887Q506 887 444 857T344 779T283 674T258 559H907Z" />
<glyph unicode="f" glyph-name="f" horiz-adv-x="581" d="M350 0H197V854H33V989H197V1065Q197 1216 274 1301T483 1386Q612 1386 692 1311L629 1212Q574 1260 508 1260Q431 1260 391 1210T350 1065V989H551V854H350V0Z" />
<glyph unicode="g" glyph-name="g" horiz-adv-x="1177" d="M551 -401Q420 -401 329 -369T152 -252L229 -141Q289 -212 366 -243T551 -274Q687 -274 778 -203T870 14V164Q813 85 726 37T537 -12Q340 -12 218 126T96 500Q96 735 217 874T537 1014Q636 1014 723 968T870
840V989H1024V14Q1024 -99 985 -182T878 -311T728 -379T551 -401ZM575 125Q663 125 745 171T870 285V719Q827 785 745 831T575 877Q428 877 342 772T256 500Q256 334 342 230T575 125Z" />
<glyph unicode="h" glyph-name="h" horiz-adv-x="1130" d="M977 0H823V651Q823 776 766 826T600 877Q515 877 436 832T309 723V0H156V1366H309V846Q365 915 460 964T662 1014Q977 1014 977 698V0Z" />
<glyph unicode="i" glyph-name="i" horiz-adv-x="460" d="M274 1130T231 1130T158 1160T127 1233T157 1306T231 1337T304 1307T334 1233T304 1160ZM307 0H154V989H307V0Z" />
<glyph unicode="j" glyph-name="j" horiz-adv-x="460" d="M274 1130T231 1130T158 1160T127 1233T157 1306T231 1337T304 1307T334 1233T304 1160ZM14 -401Q-58 -401 -105 -384T-201 -328L-147 -213Q-88 -274 -6 -274Q67 -274 110 -230T154 -96V989H307V-96Q307
-243 232 -322T14 -401Z" />
<glyph unicode="k" glyph-name="k" horiz-adv-x="1052" d="M1024 0H827L473 444L307 283V0H154V1366H307V463L827 989H1022L584 541L1024 0Z" />
<glyph unicode="l" glyph-name="l" horiz-adv-x="460" d="M307 0H154V1366H307V0Z" />
<glyph unicode="m" glyph-name="m" horiz-adv-x="1654" d="M1501 0H1348V672Q1348 877 1165 877Q1091 877 1017 833T903 725V0H750V672Q750 877 567 877Q495 877 422 832T307 723V0H154V989H307V846Q347 904 438 959T629 1014Q735 1014 802 963T893 829Q938 903
1030 958T1225 1014Q1361 1014 1431 939T1501 715V0Z" />
<glyph unicode="n" glyph-name="n" horiz-adv-x="1130" d="M975 0H823V647Q823 772 765 824T600 877Q514 877 435 833T307 723V0H154V989H307V846Q365 915 461 964T662 1014Q975 1014 975 694V0Z" />
<glyph unicode="o" glyph-name="o" horiz-adv-x="1171" d="M733 -25T586 -25T327 45T155 234T96 496Q96 716 231 865T586 1014T940 865T1075 496Q1075 352 1017 234T846 46ZM586 113Q688 113 763 167T876 306T913 496Q913 598 876 683T764 823T586 877T408 823T295
684T258 496Q258 336 346 225T586 113Z" />
<glyph unicode="p" glyph-name="p" horiz-adv-x="1171" d="M641 -25Q541 -25 456 21T307 150V-377H154V989H307V842Q363 920 451 967T641 1014Q838 1014 959 874T1081 496T960 117T641 -25ZM602 113Q748 113 834 220T920 496Q920 664 834 770T602 877Q514 877
431 831T307 719V272Q348 205 431 159T602 113Z" />
<glyph unicode="q" glyph-name="q" horiz-adv-x="1171" d="M569 113Q657 113 740 159T864 272V719Q823 785 740 831T569 877Q423 877 338 771T252 496T337 221T569 113ZM530 -25Q333 -25 212 116T90 496T211 874T530 1014Q632 1014 720 967T864 842V989H1018V-377H864V150Q732
-25 530 -25Z" />
<glyph unicode="r" glyph-name="r" horiz-adv-x="675" d="M307 0H154V989H307V831Q371 913 456 962T637 1012V854Q599 858 578 858Q506 858 424 810T307 700V0Z" />
<glyph unicode="s" glyph-name="s" horiz-adv-x="952" d="M469 -25Q220 -25 70 131L147 242Q200 182 288 141T473 100Q584 100 646 147T709 270Q709 318 675 351T587 402T468 435T338 470T218 519T130 601T96 729Q96 851 194 932T463 1014Q690 1014 829 870L758
764Q711 820 634 854T463 889Q364 889 304 845T244 733Q244 690 278 661T365 615T484 584T615 548T734 497T822 409T856 274Q856 144 755 60T469 -25Z" />
<glyph unicode="t" glyph-name="t" horiz-adv-x="602" d="M406 -25Q296 -25 240 35T184 207V854H20V989H184V1260H340V989H541V854H340V240Q340 183 365 148T438 113Q504 113 543 156L588 39Q521 -25 406 -25Z" />
<glyph unicode="u" glyph-name="u" horiz-adv-x="1128" d="M975 0H821V139Q759 69 666 22T469 -25Q154 -25 154 291V989H307V338Q307 214 364 164T530 113Q616 113 696 156T821 262V989H975V0Z" />
<glyph unicode="v" glyph-name="v" horiz-adv-x="1003" d="M586 0H418L6 989H174L502 178L831 989H997L586 0Z" />
<glyph unicode="w" glyph-name="w" horiz-adv-x="1503" d="M1165 0H1010L752 795L494 0H340L25 989H184L426 201L686 989H819L1077 201L1319 989H1481L1165 0Z" />
<glyph unicode="x" glyph-name="x" horiz-adv-x="997" d="M973 0H797L498 406L201 0H25L403 508L45 989H223L498 612L774 989H950L592 508L973 0Z" />
<glyph unicode="y" glyph-name="y" horiz-adv-x="1003" d="M100 -387L123 -248Q158 -264 207 -264Q260 -264 294 -242T354 -160L420 -10L6 989H174L502 178L831 989H997L502 -201Q419 -398 211 -401Q147 -401 100 -387Z" />
<glyph unicode="z" glyph-name="z" horiz-adv-x="966" d="M860 0H106V121L651 854H106V989H852V872L303 135H860V0Z" />
<glyph unicode="{" glyph-name="braceleft" horiz-adv-x="534" d="M500 -389H373Q271 -389 195 -313T119 -115V307Q119 368 91 408T10 449V551Q63 551 91 591T119 692V1112Q119 1235 195 1312T373 1389H500V1276H373Q318 1276 278 1230T238 1114V680Q238 538 145
500Q238 460 238 319V-113Q238 -182 278 -229T373 -276H500V-389Z" />
<glyph unicode="|" glyph-name="bar" horiz-adv-x="432" d="M272 -41H160V1407H272V-41Z" />
<glyph unicode="}" glyph-name="braceright" horiz-adv-x="534" d="M35 -389V-276H160Q216 -276 256 -229T297 -113V319Q297 460 389 500Q297 538 297 680V1114Q297 1184 257 1230T160 1276H35V1389H160Q263 1389 339 1312T416 1112V692Q416 632 443 592T522 551V449Q471
449 444 409T416 307V-115Q416 -236 340 -312T160 -389H35Z" />
<glyph unicode="~" glyph-name="asciitilde" horiz-adv-x="1030" d="M860 1366L973 1354Q965 1272 955 1208T923 1076T872 966T797 894T692 866Q632 866 588 895T521 967T479 1060T444 1154T402 1226T338 1255Q267 1255 228 1153T170 864L55 879Q65 982 81 1060T129
1212T213 1324T338 1364Q390 1364 430 1343T493 1287T535 1210T567 1127T596 1051T636 995T692 973Q741 973 775 1024T829 1159T860 1366Z" />
</font>
</defs>
</svg>
